# xmcd
#
# Track frame offsets:
#	150
#	6880
#	24265
#	36694
#	61521
#	77127
#	120102
#	135804
#	160508
#
# Disc length: 2302 seconds
# Revision: 0
# Processed by: cddbd v1.5.2PL0 Copyright (c) Steve Scherf et al.
# Submitted via: dBpowerAMP V12.0
#
DISCID=5708fc09
DTITLE=Alan Wilson - The Blind Owl
DYEAR=2013
DGENRE=Blues
TTITLE0=Alan's Intro
TTITLE1=My Time Ain't Long
TTITLE2=Skat
TTITLE3=London Blues
TTITLE4=Poor Moon
TTITLE5=Pulling Hair Blues
TTITLE6=Mean Old World
TTITLE7=Human Condition
TTITLE8=Childhood's End
EXTD=
EXTT0=
EXTT1=
EXTT2=
EXTT3=
EXTT4=
EXTT5=
EXTT6=
EXTT7=
EXTT8=
PLAYORDER=
